# Blender v2.93.3 OBJ File: 'penis.blend'
# www.blender.org
mtllib penis.mtl
o Cube
v -0.393850 3.480944 -0.393850
v 0.020457 3.895252 0.020457
v -0.393850 3.480944 0.393850
v 0.020457 3.895252 -0.020457
v 0.393850 0.393850 -1.000000
v 0.393850 1.000000 -0.393850
v 1.000000 0.393850 -0.393850
v 0.393850 -1.000000 -0.393850
v 0.393850 -0.393850 -1.000000
v 1.000000 -0.393850 -0.393850
v 1.000000 0.393850 0.393850
v 0.393850 1.000000 0.393850
v 0.393850 0.393850 1.000000
v 1.000000 -0.393850 0.393850
v 0.393850 -0.393850 1.000000
v 0.393850 -1.000000 0.393850
v -0.393850 0.393850 -1.000000
v -1.000000 0.393850 -0.393850
v -0.393850 1.000000 -0.393850
v -1.000000 -0.393850 -0.393850
v -0.393850 -0.393850 -1.000000
v -0.393850 -1.000000 -0.393850
v -1.000000 0.393850 0.393850
v -0.393850 0.393850 1.000000
v -0.393850 1.000000 0.393850
v -0.393850 -1.000000 0.393850
v -0.393850 -0.393850 1.000000
v -1.000000 -0.393850 0.393850
v -0.393850 2.075776 0.393850
v -0.393850 2.075776 -0.393850
v 0.393850 2.075776 0.393850
v 0.393850 2.075776 -0.393850
v -0.020457 3.895252 -0.020457
v 0.393850 3.049375 0.393850
v 0.393850 3.049375 -0.393850
v -0.020457 3.895252 0.020457
vt 0.299231 0.575769
vt 0.200769 0.674231
vt 0.200769 0.575769
vt 0.549231 0.075769
vt 0.450769 0.174231
vt 0.450769 0.075769
vt 0.625000 0.325769
vt 0.625000 0.424231
vt 0.625000 0.424231
vt 0.549231 0.825769
vt 0.450769 0.924231
vt 0.450769 0.825769
vt 0.700769 0.575769
vt 0.700769 0.674231
vt 0.700769 0.674231
vt 0.549231 0.575769
vt 0.450769 0.674231
vt 0.450769 0.575769
vt 0.549231 0.424231
vt 0.549231 0.500000
vt 0.299231 0.500000
vt 0.375000 0.575769
vt 0.549231 0.674231
vt 0.625000 0.674231
vt 0.549231 0.750000
vt 0.450769 0.750000
vt 0.375000 0.825769
vt 0.375000 0.825769
vt 0.549231 0.250000
vt 0.549231 0.250000
vt 0.625000 0.174231
vt 0.450769 0.250000
vt 0.375000 0.174231
vt 0.549231 0.000000
vt 0.625000 0.075769
vt 0.200769 0.750000
vt 0.125000 0.674231
vt 0.125000 0.575769
vt 0.450769 0.000000
vt 0.450769 0.325769
vt 0.549231 0.174231
vt 0.549231 0.325769
vt 0.625000 0.924231
vt 0.625000 0.825769
vt 0.299231 0.674231
vt 0.450769 0.424231
vt 0.747443 0.627557
vt 0.752557 0.622443
vt 0.752557 0.627557
vt 0.625000 0.174231
vt 0.625000 0.325769
vt 0.625000 0.424231
vt 0.625000 0.075769
vt 0.625000 0.174231
vt 0.625000 0.924231
vt 0.625000 0.825769
vt 0.625000 0.924231
vt 0.700769 0.575769
vt 0.700769 0.674231
vt 0.700769 0.575769
vt 0.799231 0.674231
vt 0.799231 0.575769
vt 0.747443 0.622443
vt 0.549231 0.924231
vt 0.200769 0.500000
vt 0.299231 0.750000
vt 0.625000 0.325769
vt 0.625000 0.075769
vt 0.625000 0.825769
vn 0.0000 -1.0000 0.0000
vn -1.0000 0.0000 0.0000
vn 0.0000 0.0000 -1.0000
vn 0.0000 0.0000 1.0000
vn 1.0000 0.0000 0.0000
vn 0.5774 0.5774 -0.5774
vn 0.5774 -0.5774 -0.5774
vn 0.5774 0.5774 0.5774
vn 0.5774 -0.5774 0.5774
vn -0.5774 0.5774 -0.5774
vn -0.5774 -0.5774 -0.5774
vn -0.5774 0.5774 0.5774
vn -0.5774 -0.5774 0.5774
vn -0.7071 -0.7071 0.0000
vn 0.0000 -0.7071 -0.7071
vn 0.7071 0.0000 -0.7071
vn -0.7071 0.0000 0.7071
vn 0.7071 0.0000 0.7071
vn -0.7071 0.0000 -0.7071
vn 0.0000 0.7071 0.7071
vn 0.7071 0.7071 0.0000
vn 0.0000 -0.7071 0.7071
vn -0.7071 0.7071 0.0000
vn 0.0000 0.7071 -0.7071
vn 0.7071 -0.7071 0.0000
vn 0.0000 1.0000 -0.0000
vn 0.8981 0.4399 0.0000
vn 0.2915 0.5321 0.7949
vn 0.2850 0.5201 -0.8051
vn -0.8981 -0.4399 0.0000
vn -0.0000 -0.4399 0.8981
usemtl Material
s off
f 8/1/1 26/2/1 22/3/1
f 23/4/2 20/5/2 28/6/2
f 19/7/3 32/8/3 6/9/3
f 13/10/4 27/11/4 15/12/4
f 6/13/5 31/14/5 12/15/5
f 7/16/5 14/17/5 10/18/5
f 5/19/6 6/9/6 7/20/6
f 8/1/7 9/21/7 10/22/7
f 11/23/8 12/24/8 13/25/8
f 14/26/9 15/27/9 16/28/9
f 17/29/10 18/30/10 19/31/10
f 20/5/11 21/32/11 22/33/11
f 23/4/12 24/34/12 25/35/12
f 26/2/13 27/36/13 28/37/13
f 26/2/14 20/38/14 22/3/14
f 22/3/15 9/21/15 8/1/15
f 10/18/16 5/19/16 7/16/16
f 24/34/17 28/6/17 27/39/17
f 15/12/18 11/23/18 13/10/18
f 21/40/19 18/41/19 17/42/19
f 25/43/20 13/10/20 12/44/20
f 12/15/21 7/16/21 6/13/21
f 16/45/22 27/36/22 26/2/22
f 19/31/23 23/4/23 25/35/23
f 6/9/24 17/42/24 19/7/24
f 8/1/25 14/17/25 16/45/25
f 17/42/3 9/46/3 21/40/3
f 2/47/26 33/48/26 36/49/26
f 25/35/2 30/50/2 19/31/2
f 30/51/3 35/52/3 32/8/3
f 29/53/2 1/54/2 30/50/2
f 29/55/4 34/56/4 3/57/4
f 32/58/5 34/59/5 31/14/5
f 12/44/4 29/55/4 25/43/4
f 36/49/27 34/59/27 35/60/27
f 33/48/28 3/61/28 34/59/28
f 2/47/29 35/60/29 1/62/29
f 4/63/23 1/62/23 3/61/23
f 8/1/1 16/45/1 26/2/1
f 23/4/2 18/41/2 20/5/2
f 19/7/3 30/51/3 32/8/3
f 13/10/4 24/64/4 27/11/4
f 6/13/5 32/58/5 31/14/5
f 7/16/5 11/23/5 14/17/5
f 26/2/14 28/37/14 20/38/14
f 22/3/15 21/65/15 9/21/15
f 10/18/16 9/46/16 5/19/16
f 24/34/17 23/4/17 28/6/17
f 15/12/18 14/17/18 11/23/18
f 21/40/19 20/5/19 18/41/19
f 25/43/20 24/64/20 13/10/20
f 12/15/21 11/23/21 7/16/21
f 16/45/22 15/66/22 27/36/22
f 19/31/23 18/41/23 23/4/23
f 6/9/24 5/19/24 17/42/24
f 8/1/25 10/18/25 14/17/25
f 17/42/3 5/19/3 9/46/3
f 2/47/26 4/63/26 33/48/26
f 25/35/2 29/53/2 30/50/2
f 30/51/3 1/67/3 35/52/3
f 29/53/2 3/68/2 1/54/2
f 29/55/4 31/69/4 34/56/4
f 32/58/5 35/60/5 34/59/5
f 12/44/4 31/69/4 29/55/4
f 36/49/30 33/48/30 34/59/30
f 33/48/15 4/63/15 3/61/15
f 2/47/31 36/49/31 35/60/31
f 4/63/25 2/47/25 1/62/25
